<svg width="24" height="22" viewBox="0 0 24 22" fill="none" xmlns="http://www.w3.org/2000/svg">
<path d="M19.0723 16.2373C17.8222 18.4693 16.0699 20.3804 13.9541 21.8184C13.7849 21.9364 13.5833 21.9998 13.377 22H12.4531C10.1039 22.0057 7.79514 21.3844 5.76562 20.2012L6.6084 19.8896L8.15723 19.1172C9.90299 18.2404 11.3978 16.9342 12.5 15.3213L13.0166 14.5615C13.0947 14.4534 13.1507 14.3302 13.1807 14.2002C13.2106 14.0701 13.2144 13.9352 13.1914 13.8037C13.1684 13.6723 13.1192 13.5467 13.0469 13.4346C12.9745 13.3224 12.8798 13.2256 12.7695 13.1504C12.6593 13.0753 12.5351 13.0224 12.4043 12.9961C12.2735 12.9698 12.1385 12.9705 12.0078 12.9971C11.877 13.0237 11.7527 13.076 11.6426 13.1514C11.5324 13.2268 11.4383 13.3242 11.3662 13.4365L10.8477 14.1963C9.93643 15.5279 8.70245 16.6065 7.26074 17.3311L5.8623 18.0303L3.81055 18.792C2.84211 17.9467 2.00666 16.96 1.33301 15.8652L2.50391 15.6709C4.49746 15.1694 6.3229 14.1488 7.79395 12.7129C7.88775 12.6211 7.96313 12.5114 8.01465 12.3906C8.06606 12.27 8.09334 12.1399 8.09473 12.0088C8.09606 11.8777 8.07132 11.7476 8.02246 11.626C7.97351 11.5042 7.9014 11.3926 7.80957 11.2988C7.71777 11.2051 7.60799 11.1306 7.4873 11.0791C7.36659 11.0276 7.23671 11.0004 7.10547 10.999C6.9742 10.9976 6.84349 11.0223 6.72168 11.0713C6.60007 11.1202 6.48919 11.1925 6.39551 11.2842C5.20027 12.4557 3.71918 13.294 2.09961 13.7158L0.381836 13.9971C0.374843 13.9791 0.365392 13.9613 0.358398 13.9434C0.10051 13.3016 -0.0206087 12.6131 0.00292969 11.9219C0.0264964 11.2305 0.194059 10.5515 0.495117 9.92871C0.801246 9.29733 1.23592 8.73655 1.77148 8.2832C2.30708 7.82985 2.93217 7.49354 3.60547 7.2959L5.67676 6.68848C6.55341 6.40293 7.39649 6.02245 8.19043 5.55371L19.0723 16.2373ZM22.4365 0C22.7043 0 22.9617 0.105938 23.1514 0.294922C23.3406 0.484289 23.4468 0.7411 23.4473 1.00879C23.4476 1.27651 23.342 1.5337 23.1533 1.72363L18.4111 6.46582L19.21 7.24902C19.7827 7.80887 20.2133 8.4978 20.4658 9.25781C20.7183 10.0179 20.786 10.8278 20.6621 11.6191C20.5158 12.5275 20.2807 13.4192 19.9619 14.2822L9.94531 4.44824C10.0381 4.38439 10.1289 4.3295 10.2207 4.26367C11.1762 3.57442 12.3446 3.24449 13.5195 3.33203C14.6944 3.4196 15.8007 3.91898 16.6436 4.74219L16.9629 5.05469L21.7227 0.294922C21.9122 0.106093 22.169 0.000101746 22.4365 0Z" fill="#00BCD4"/>
</svg>
