<svg width="22" height="22" viewBox="0 0 22 22" fill="none" xmlns="http://www.w3.org/2000/svg">
<path d="M21.3289 6.16928L15.8827 0.721342C15.4973 0.322338 14.984 0.0716622 14.4326 0.013176C13.8813 -0.0453102 13.3269 0.0921179 12.8665 0.401414C12.5951 0.594598 12.369 0.844714 12.2041 1.13432C12.0392 1.42393 11.9394 1.74605 11.9117 2.07823C11.8839 2.4104 11.929 2.74463 12.0436 3.05761C12.1582 3.37059 12.3396 3.65478 12.5752 3.89037L13.1175 4.43214C13.2556 4.57125 13.3332 4.75943 13.3332 4.95557C13.3332 5.15171 13.2556 5.33989 13.1175 5.479L11.194 7.40407C11.0252 7.57227 10.8157 7.69386 10.586 7.75699C10.3564 7.82013 10.1142 7.82265 9.88327 7.76433L9.1322 7.57183C8.26607 7.34555 7.36624 7.27754 6.47597 7.37107C5.8909 7.43197 5.33543 7.65901 4.87503 8.02542C4.41463 8.39183 4.0685 8.88235 3.87745 9.43914C3.66818 10.0147 3.62743 10.638 3.75999 11.236C3.89255 11.8339 4.19291 12.3815 4.62577 12.8144L6.225 14.4718L0.279626 20.4239C0.192144 20.5085 0.122366 20.6096 0.0743624 20.7215C0.0263588 20.8333 0.00109141 20.9536 3.4583e-05 21.0753C-0.00102225 21.1971 0.0221526 21.3178 0.068207 21.4304C0.114261 21.5431 0.182273 21.6454 0.268273 21.7315C0.354273 21.8176 0.45654 21.8856 0.569106 21.9317C0.681672 21.9778 0.802283 22.001 0.923901 22C1.04552 21.9989 1.16571 21.9736 1.27746 21.9256C1.38921 21.8775 1.49027 21.8077 1.57477 21.7201L7.49816 15.7919L8.64309 16.9781C9.41925 17.8022 10.4898 18.2854 11.6208 18.3219C11.9865 18.3224 12.3495 18.2604 12.6943 18.1386C13.2205 17.9569 13.6828 17.6263 14.0251 17.1871C14.3675 16.7478 14.5753 16.2186 14.6233 15.6635C14.716 14.7807 14.6496 13.8883 14.4273 13.0289L14.2331 12.0884C14.1786 11.859 14.1837 11.6195 14.2478 11.3926C14.312 11.1657 14.433 10.959 14.5995 10.7922L16.5129 8.87995C16.6617 8.74331 16.8542 8.66404 17.056 8.65628C17.1446 8.6561 17.2324 8.6736 17.3142 8.70775C17.3959 8.74191 17.4701 8.79204 17.5323 8.8552L17.9958 9.31905C18.3792 9.72871 18.8958 9.98823 19.4531 10.0511C20.0104 10.1139 20.5719 9.97592 21.0367 9.6619C21.3082 9.46879 21.5343 9.21873 21.6993 8.92916C21.8643 8.63959 21.9642 8.31748 21.992 7.9853C22.0198 7.65312 21.9749 7.31887 21.8604 7.00585C21.7458 6.69283 21.5645 6.40859 21.3289 6.17294V6.16928Z" fill="#00BCD4"/>
</svg>
