<svg width="20" height="22" viewBox="0 0 20 22" fill="none" xmlns="http://www.w3.org/2000/svg">
<path d="M17.563 18.4939C18.7662 17.0934 19.5625 15.3853 19.8644 13.5577C20.1663 11.73 19.9619 9.85387 19.2738 8.13587C18.5858 6.41787 17.4407 4.9247 15.9648 3.82089C14.4889 2.71707 12.7394 2.04544 10.9091 1.88V0.916627C10.9091 0.673522 10.8133 0.440375 10.6428 0.268474C10.4724 0.0965729 10.2411 0 10 0C9.75888 0 9.52765 0.0965729 9.35715 0.268474C9.18666 0.440375 9.09087 0.673522 9.09087 0.916627V1.88C7.26059 2.04544 5.51112 2.71707 4.03521 3.82089C2.5593 4.9247 1.41423 6.41787 0.726165 8.13587C0.0381 9.85387 -0.166258 11.73 0.135605 13.5577C0.437469 15.3853 1.23384 17.0934 2.43697 18.4939C1.96184 18.7309 1.56479 19.1013 1.29364 19.5606C1.0225 20.0198 0.888831 20.5483 0.908732 21.0824C0.908732 21.3255 1.00451 21.5587 1.17501 21.7306C1.3455 21.9025 1.57674 21.999 1.81786 21.999C2.05897 21.999 2.29021 21.9025 2.46071 21.7306C2.6312 21.5587 2.72699 21.3255 2.72699 21.0824C2.71943 20.7999 2.82003 20.5253 3.00792 20.3155C3.19581 20.1058 3.45657 19.977 3.73612 19.9559C3.79865 19.9439 3.85964 19.9248 3.91794 19.8991C5.65941 21.2609 7.80067 22 10.0045 22C12.2084 22 14.3497 21.2609 16.0912 19.8991C16.1444 19.9238 16.1998 19.9434 16.2566 19.9577C16.5371 19.977 16.7994 20.1047 16.9888 20.3143C17.1782 20.5238 17.28 20.799 17.273 21.0824C17.273 21.3255 17.3688 21.5587 17.5393 21.7306C17.7098 21.9025 17.941 21.999 18.1821 21.999C18.4233 21.999 18.6545 21.9025 18.825 21.7306C18.9955 21.5587 19.0913 21.3255 19.0913 21.0824C19.1112 20.5483 18.9775 20.0198 18.7064 19.5606C18.4352 19.1013 18.0382 18.7309 17.563 18.4939V18.4939ZM13.3701 14.3975C13.1996 14.5693 12.9684 14.6658 12.7274 14.6658C12.4863 14.6658 12.2551 14.5693 12.0846 14.3975L9.35725 11.6476C9.18674 11.4757 9.09092 11.2426 9.09087 10.9995V6.41639C9.09087 6.17328 9.18666 5.94014 9.35715 5.76824C9.52765 5.59634 9.75888 5.49976 10 5.49976C10.2411 5.49976 10.4724 5.59634 10.6428 5.76824C10.8133 5.94014 10.9091 6.17328 10.9091 6.41639V10.62L13.3701 13.1013C13.5406 13.2732 13.6363 13.5063 13.6363 13.7494C13.6363 13.9925 13.5406 14.2256 13.3701 14.3975V14.3975Z" fill="#00BCD4"/>
</svg>
