<svg width="28" height="22" viewBox="0 0 28 22" fill="none" xmlns="http://www.w3.org/2000/svg">
<path d="M25.7925 2.89472C24.7469 1.0421 22.888 0 20.7966 0H6.97094C4.87967 0 3.02072 1.0421 1.97508 2.89472C0.697089 5.21049 0 7.75789 0 10.421C0 16.7895 2.55599 22 5.80913 22C7.55185 22 8.94608 20.379 9.99171 17.021C10.1079 16.5579 10.5726 16.2105 11.1535 16.2105H16.8465C17.3112 16.2105 17.7759 16.5579 18.0083 17.021C19.0539 20.379 20.4481 22 22.1909 22C25.444 22 28 16.7895 28 10.421C27.7676 7.75784 27.0705 5.21049 25.7925 2.89472ZM10.4564 9.26314H9.29462V10.421C9.29462 11.1158 8.8299 11.5789 8.13281 11.5789C7.43572 11.5789 6.971 11.1158 6.971 10.421V9.26314H5.80918C5.11209 9.26314 4.64737 8.79999 4.64737 8.10526C4.64737 7.41053 5.11209 6.94737 5.80918 6.94737H6.971V5.78949C6.971 5.09475 7.43572 4.6316 8.13281 4.6316C8.8299 4.6316 9.29462 5.09475 9.29462 5.78949V6.94737H10.4564C11.1535 6.94737 11.6183 7.41053 11.6183 8.10526C11.6183 8.79999 11.1535 9.26314 10.4564 9.26314ZM18.1245 11.5789C17.195 11.5789 16.3817 10.7684 16.3817 9.84209C16.3817 8.91578 17.195 8.10526 18.1245 8.10526C19.0539 8.10526 19.8672 8.91578 19.8672 9.84209C19.8672 10.7684 18.9377 11.5789 18.1245 11.5789ZM21.4938 8.10526C20.6805 8.10526 19.7511 7.29474 19.7511 6.36843C19.7511 5.44212 20.6805 4.6316 21.4938 4.6316C22.3071 4.6316 23.2365 5.44212 23.2365 6.36843C23.2365 7.29474 22.4232 8.10526 21.4938 8.10526Z" fill="#00BCD4"/>
</svg>
