<svg width="16" height="22" viewBox="0 0 16 22" fill="none" xmlns="http://www.w3.org/2000/svg">
<path d="M10.6759 22C9.18156 21.9988 7.70408 21.6747 6.33879 21.0485C4.97351 20.4224 3.75076 19.5081 2.74945 18.3647C1.74058 17.2199 0.979401 15.8671 0.516416 14.396C0.0534314 12.9248 -0.100773 11.369 0.0640343 9.83179C0.329733 7.43941 1.34218 5.20075 2.94895 3.45285C4.55573 1.70496 6.66985 0.542431 8.97303 0.140302C10.4619 -0.0967606 11.9814 -0.0329388 13.4467 0.32821C13.8303 0.429826 14.1807 0.635283 14.4615 0.923321C14.7423 1.21136 14.9433 1.57151 15.0438 1.96652C15.1443 2.36152 15.1405 2.77702 15.0329 3.17003C14.9254 3.56304 14.7179 3.91927 14.4319 4.20187C10.3771 8.02053 10.7292 13.9584 15.1495 17.4104C15.462 17.6633 15.7031 17.9979 15.8477 18.3794C15.9922 18.7609 16.0349 19.1753 15.9714 19.5796C15.9078 19.9839 15.7403 20.3633 15.4863 20.6782C15.2323 20.9931 14.9011 21.2321 14.527 21.3703C13.2837 21.789 11.9838 22.0016 10.6759 22V22Z" fill="#00BCD4"/>
</svg>
