<svg width="22" height="22" viewBox="0 0 22 22" fill="none" xmlns="http://www.w3.org/2000/svg">
<path d="M21.0825 4.58762H18.7098L20.8136 2.48374C20.9808 2.31069 21.0733 2.07892 21.0712 1.83835C21.0691 1.59778 20.9726 1.36765 20.8025 1.19754C20.6323 1.02742 20.4022 0.930924 20.1616 0.928833C19.9211 0.926743 19.6893 1.01922 19.5163 1.18636L17.4124 3.29024V0.917524C17.4124 0.674181 17.3157 0.440806 17.1436 0.268737C16.9716 0.0966675 16.7382 0 16.4949 0C16.2515 0 16.0181 0.0966675 15.8461 0.268737C15.674 0.440806 15.5773 0.674181 15.5773 0.917524V5.00601C14.8263 4.20649 13.9398 3.5461 12.9587 3.05535C12.2773 2.75447 11.5167 2.68259 10.791 2.85049C10.0653 3.0184 9.41355 3.41704 8.93354 3.98664L11.6384 6.6915C11.8055 6.86455 11.898 7.09632 11.8959 7.33689C11.8938 7.57746 11.7973 7.80759 11.6272 7.9777C11.4571 8.14782 11.227 8.24432 10.9864 8.24641C10.7458 8.2485 10.5141 8.15602 10.341 7.98888L7.79765 5.44642C6.75442 6.97777 5.35612 9.35874 3.95597 11.8544L6.13326 14.0317C6.30039 14.2047 6.39287 14.4365 6.39078 14.6771C6.38869 14.9177 6.2922 15.1478 6.12208 15.3179C5.95196 15.488 5.72184 15.5845 5.48127 15.5866C5.2407 15.5887 5.00893 15.4962 4.83588 15.3291L3.02744 13.5206C2.01174 15.3612 1.04008 17.1687 0.254682 18.6432C0.0317141 19.0771 -0.0477432 19.5706 0.0277578 20.0526C0.103259 20.5346 0.32982 20.9802 0.6748 21.3252C1.01978 21.6702 1.46537 21.8967 1.94737 21.9722C2.42936 22.0477 2.92289 21.9683 3.35683 21.7453C5.94884 20.369 9.56113 18.412 12.5825 16.6531L10.341 14.4115C10.1739 14.2385 10.0814 14.0067 10.0835 13.7662C10.0856 13.5256 10.1821 13.2955 10.3522 13.1253C10.5223 12.9552 10.7524 12.8587 10.993 12.8566C11.2336 12.8546 11.4654 12.947 11.6384 13.1142L14.2121 15.6897C15.546 14.9447 16.8084 14.0783 17.9831 13.1013C18.5635 12.6222 18.9716 11.9666 19.1453 11.2342C19.319 10.5019 19.2489 9.73286 18.9456 9.04403C18.4544 8.06222 17.7937 7.17481 16.994 6.42267H21.0825C21.3258 6.42267 21.5592 6.326 21.7313 6.15393C21.9033 5.98186 22 5.74849 22 5.50514C22 5.2618 21.9033 5.02843 21.7313 4.85636C21.5592 4.68429 21.3258 4.58762 21.0825 4.58762Z" fill="#00BCD4"/>
</svg>
