<svg width="24" height="22" viewBox="0 0 24 22" fill="none" xmlns="http://www.w3.org/2000/svg">
<path d="M24 7.49422V19.002C24 19.267 23.8946 19.5211 23.7071 19.7084C23.5196 19.8957 23.2652 20.001 23 20.001C22.7348 20.001 22.4804 19.8957 22.2929 19.7084C22.1053 19.5211 22 19.267 22 19.002V10.7628L14.6 14.295C13.8197 14.7551 12.929 14.9947 12.023 14.9883C11.0728 14.9898 10.1399 14.7347 9.32295 14.2501L1.94292 10.7408C1.3628 10.4292 0.876724 9.96814 0.535134 9.40556C0.193544 8.84297 0.00888332 8.19933 0.000312567 7.5414C-0.00825819 6.88348 0.159573 6.23525 0.486393 5.66398C0.813212 5.09271 1.28711 4.61921 1.85892 4.29261C1.88592 4.27663 1.91492 4.26164 1.94292 4.24766L9.39995 0.693419C10.205 0.231569 11.1187 -0.00771117 12.0471 0.000189498C12.9754 0.00809017 13.8849 0.262887 14.682 0.738371L22.057 4.24766C22.6389 4.5693 23.1252 5.03911 23.4665 5.60934C23.8078 6.17958 23.9919 6.8299 24 7.49422V7.49422ZM12.022 16.9842C10.7425 16.987 9.48507 16.652 8.37694 16.0132L3.99993 13.9264V16.6236C4.00052 17.69 4.34229 18.7282 4.97536 19.5869C5.60842 20.4455 6.49964 21.0796 7.51894 21.3965C8.97528 21.8142 10.4849 22.0171 12 21.9989C13.5152 22.0158 15.0248 21.8116 16.481 21.3925C17.5003 21.0756 18.3915 20.4415 19.0246 19.5829C19.6576 18.7242 19.9994 17.686 20 16.6196V13.9314L15.541 16.0592C14.4706 16.6734 13.2564 16.9933 12.022 16.9862V16.9842Z" fill="#00BCD4"/>
</svg>
